<svg xmlns="http://www.w3.org/2000/svg" xmlns:xlink="http://www.w3.org/1999/xlink" width="500" zoomAndPan="magnify" viewBox="0 0 375 374.999991" height="500" preserveAspectRatio="xMidYMid meet" version="1.0"><defs><g/><clipPath id="3ea5d2cdaa"><path d="M 31.953125 56.667969 L 343.046875 56.667969 L 343.046875 318.332031 L 31.953125 318.332031 Z M 31.953125 56.667969 " clip-rule="nonzero"/></clipPath><clipPath id="294935f844"><path d="M 40.203125 56.667969 L 334.796875 56.667969 C 339.355469 56.667969 343.046875 60.359375 343.046875 64.917969 L 343.046875 310.082031 C 343.046875 314.640625 339.355469 318.332031 334.796875 318.332031 L 40.203125 318.332031 C 35.644531 318.332031 31.953125 314.640625 31.953125 310.082031 L 31.953125 64.917969 C 31.953125 60.359375 35.644531 56.667969 40.203125 56.667969 " clip-rule="nonzero"/></clipPath></defs><rect x="-37.5" width="450" fill="#ffffff" y="-37.499999" height="449.999989" fill-opacity="1"/><rect x="-37.5" width="450" fill="#ffffff" y="-37.499999" height="449.999989" fill-opacity="1"/><rect x="-37.5" width="450" fill="#df4d4d" y="-37.499999" height="449.999989" fill-opacity="1"/><g clip-path="url(#3ea5d2cdaa)"><g clip-path="url(#294935f844)"><path fill="#ffffff" d="M 31.953125 56.667969 L 343.046875 56.667969 L 343.046875 318.332031 L 31.953125 318.332031 Z M 31.953125 56.667969 " fill-opacity="1" fill-rule="nonzero"/></g></g><g fill="#df4d4d" fill-opacity="1"><g transform="translate(38.847486, 294.949515)"><g><path d="M 80.550781 -44.886719 L 80.550781 -106.683594 C 80.550781 -133.433594 80.859375 -160.179688 80.859375 -186.929688 C 80.859375 -203.839844 71.636719 -213.0625 54.726562 -213.0625 L 49.191406 -213.0625 C 32.28125 -213.0625 23.058594 -203.839844 23.367188 -186.929688 C 23.367188 -160.179688 23.671875 -133.433594 23.671875 -106.683594 C 23.671875 -79.9375 23.367188 -53.1875 23.367188 -26.132812 C 23.058594 -9.222656 32.28125 0 49.191406 0 L 115.601562 0 C 132.511719 0 141.734375 -8.300781 141.734375 -23.671875 C 141.734375 -38.738281 132.203125 -46.425781 114.984375 -45.808594 C 103.609375 -45.195312 91.925781 -45.195312 80.550781 -44.886719 Z M 80.550781 -44.886719 "/></g></g></g><g fill="#df4d4d" fill-opacity="1"><g transform="translate(155.978884, 294.949515)"><g><path d="M 172.476562 -192.460938 C 172.476562 -205.988281 163.253906 -213.0625 146.34375 -213.0625 L 33.820312 -213.0625 C 16.910156 -213.0625 7.6875 -205.683594 7.6875 -192.460938 C 7.6875 -179.242188 16.910156 -171.554688 34.125 -171.554688 C 43.351562 -171.863281 52.265625 -171.863281 60.875 -171.863281 C 60.875 -150.34375 61.183594 -128.511719 61.183594 -106.683594 C 61.183594 -79.628906 60.875 -52.882812 60.566406 -26.132812 C 60.566406 -9.222656 69.789062 0 86.699219 0 L 92.234375 0 C 109.144531 0 118.367188 -9.222656 118.058594 -26.132812 C 118.058594 -53.1875 118.058594 -79.628906 118.058594 -106.683594 L 118.058594 -171.863281 C 127.285156 -171.863281 136.199219 -171.863281 146.039062 -171.554688 C 163.253906 -171.554688 172.476562 -179.242188 172.476562 -192.460938 Z M 172.476562 -192.460938 "/></g></g></g><path stroke-linecap="butt" transform="matrix(0.000000000000000213, 0.750556, -0.75, 0.000000000000000212, 93.71953, 95.077626)" fill="none" stroke-linejoin="miter" d="M 29.999254 4.001041 L 222.819819 4.001041 " stroke="#ffffff" stroke-width="8" stroke-opacity="1" stroke-miterlimit="4"/><path stroke-linecap="round" transform="matrix(0.000000000000000213, 0.750556, -0.75, 0.000000000000000212, 93.71953, 95.077626)" fill-opacity="1" fill="#ffffff" fill-rule="nonzero" stroke-linejoin="round" d="M 3.997701 4.001041 C 3.997701 -2.629168 9.373923 -7.99896 15.999219 -7.99896 C 22.629719 -7.99896 28.000736 -2.629168 28.000736 4.001041 C 28.000736 10.626041 22.629719 16.001042 15.999219 16.001042 C 9.373923 16.001042 3.997701 10.626041 3.997701 4.001041 " stroke="#ffffff" stroke-width="8" stroke-opacity="1" stroke-miterlimit="4"/><path stroke-linecap="round" transform="matrix(0.000000000000000213, 0.750556, -0.75, 0.000000000000000212, 93.71953, 95.077626)" fill-opacity="1" fill="#ffffff" fill-rule="nonzero" stroke-linejoin="round" d="M 248.821372 4.001041 C 248.821372 10.626041 243.450355 16.001042 236.819855 16.001042 C 230.194559 16.001042 224.823542 10.626041 224.823542 4.001041 C 224.823542 -2.629168 230.194559 -7.99896 236.819855 -7.99896 C 243.450355 -7.99896 248.821372 -2.629168 248.821372 4.001041 " stroke="#ffffff" stroke-width="8" stroke-opacity="1" stroke-miterlimit="4"/><path stroke-linecap="butt" transform="matrix(0.746955, 0, 0, 0.75, 77.530759, 268.498194)" fill="none" stroke-linejoin="miter" d="M 29.997432 4.002408 L 85.472639 4.002408 " stroke="#ffffff" stroke-width="8" stroke-opacity="1" stroke-miterlimit="4"/><path stroke-linecap="round" transform="matrix(0.746955, 0, 0, 0.75, 77.530759, 268.498194)" fill-opacity="1" fill="#ffffff" fill-rule="nonzero" stroke-linejoin="round" d="M 4.001274 4.002408 C 4.001274 -2.627801 9.372035 -7.997593 15.997892 -7.997593 C 22.628978 -7.997593 27.999739 -2.627801 27.999739 4.002408 C 27.999739 10.627408 22.628978 16.002409 15.997892 16.002409 C 9.372035 16.002409 4.001274 10.627408 4.001274 4.002408 " stroke="#ffffff" stroke-width="8" stroke-opacity="1" stroke-miterlimit="4"/><path stroke-linecap="round" transform="matrix(0.746955, 0, 0, 0.75, 77.530759, 268.498194)" fill-opacity="1" fill="#ffffff" fill-rule="nonzero" stroke-linejoin="round" d="M 111.474027 4.002408 C 111.474027 10.627408 106.098036 16.002409 99.472179 16.002409 C 92.846323 16.002409 87.470332 10.627408 87.470332 4.002408 C 87.470332 -2.627801 92.846323 -7.997593 99.472179 -7.997593 C 106.098036 -7.997593 111.474027 -2.627801 111.474027 4.002408 " stroke="#ffffff" stroke-width="8" stroke-opacity="1" stroke-miterlimit="4"/><path stroke-linecap="butt" transform="matrix(0.748765, 0, 0, 0.75, 178.560067, 98.394478)" fill="none" stroke-linejoin="miter" d="M 30.00056 4.000071 L 150.308036 4.000071 " stroke="#ffffff" stroke-width="8" stroke-opacity="1" stroke-miterlimit="4"/><path stroke-linecap="round" transform="matrix(0.748765, 0, 0, 0.75, 178.560067, 98.394478)" fill-opacity="1" fill="#ffffff" fill-rule="nonzero" stroke-linejoin="round" d="M 3.999413 4.000071 C 3.999413 -2.62493 9.372844 -7.99993 15.998337 -7.99993 C 22.629047 -7.99993 28.002478 -2.62493 28.002478 4.000071 C 28.002478 10.625071 22.629047 16.000072 15.998337 16.000072 C 9.372844 16.000072 3.999413 10.625071 3.999413 4.000071 " stroke="#ffffff" stroke-width="8" stroke-opacity="1" stroke-miterlimit="4"/><path stroke-linecap="round" transform="matrix(0.748765, 0, 0, 0.75, 178.560067, 98.394478)" fill-opacity="1" fill="#ffffff" fill-rule="nonzero" stroke-linejoin="round" d="M 176.303967 4.000071 C 176.303967 10.625071 170.930536 16.000072 164.305043 16.000072 C 157.67955 16.000072 152.306118 10.625071 152.306118 4.000071 C 152.306118 -2.62493 157.67955 -7.99993 164.305043 -7.99993 C 170.930536 -7.99993 176.303967 -2.62493 176.303967 4.000071 " stroke="#ffffff" stroke-width="8" stroke-opacity="1" stroke-miterlimit="4"/><path stroke-linecap="butt" transform="matrix(0.000000000000000046, 0.751521, -0.75, 0.000000000000000046, 249.174012, 98.21067)" fill="none" stroke-linejoin="miter" d="M 5.998607 3.997641 L 216.503934 3.997641 " stroke="#ffffff" stroke-width="8" stroke-opacity="1" stroke-miterlimit="4"/><path stroke-linecap="round" transform="matrix(0.000000000000000046, 0.751521, -0.75, 0.000000000000000046, 249.174012, 98.21067)" fill="none" stroke-linejoin="round" d="M 3.997458 -8.002359 L 3.997458 15.997642 " stroke="#ffffff" stroke-width="8" stroke-opacity="1" stroke-miterlimit="4"/><path stroke-linecap="round" transform="matrix(0.000000000000000046, 0.751521, -0.75, 0.000000000000000046, 249.174012, 98.21067)" fill-opacity="1" fill="#ffffff" fill-rule="nonzero" stroke-linejoin="round" d="M 242.503283 3.997641 C 242.503283 10.62785 237.128767 15.997642 230.501584 15.997642 C 223.874401 15.997642 218.499885 10.62785 218.499885 3.997641 C 218.499885 -2.627359 223.874401 -8.002359 230.501584 -8.002359 C 237.128767 -8.002359 242.503283 -2.627359 242.503283 3.997641 " stroke="#ffffff" stroke-width="8" stroke-opacity="1" stroke-miterlimit="4"/></svg>