<svg xmlns="http://www.w3.org/2000/svg" xmlns:xlink="http://www.w3.org/1999/xlink" width="500" zoomAndPan="magnify" viewBox="0 0 375 374.999991" height="500" preserveAspectRatio="xMidYMid meet" version="1.0"><defs><g/><clipPath id="261078956c"><path d="M 31.953125 56.667969 L 343.046875 56.667969 L 343.046875 318.332031 L 31.953125 318.332031 Z M 31.953125 56.667969 " clip-rule="nonzero"/></clipPath><clipPath id="3ff5d1f102"><path d="M 40.203125 56.667969 L 334.796875 56.667969 C 339.355469 56.667969 343.046875 60.359375 343.046875 64.917969 L 343.046875 310.082031 C 343.046875 314.640625 339.355469 318.332031 334.796875 318.332031 L 40.203125 318.332031 C 35.644531 318.332031 31.953125 314.640625 31.953125 310.082031 L 31.953125 64.917969 C 31.953125 60.359375 35.644531 56.667969 40.203125 56.667969 " clip-rule="nonzero"/></clipPath></defs><rect x="-37.5" width="450" fill="#ffffff" y="-37.499999" height="449.999989" fill-opacity="1"/><rect x="-37.5" width="450" fill="#ffffff" y="-37.499999" height="449.999989" fill-opacity="1"/><g clip-path="url(#261078956c)"><g clip-path="url(#3ff5d1f102)"><path fill="#ffffff" d="M 31.953125 56.667969 L 343.046875 56.667969 L 343.046875 318.332031 L 31.953125 318.332031 Z M 31.953125 56.667969 " fill-opacity="1" fill-rule="nonzero"/></g></g><g fill="#df4d4d" fill-opacity="1"><g transform="translate(38.847486, 294.949538)"><g><path d="M 80.550781 -44.886719 L 80.550781 -106.683594 C 80.550781 -133.433594 80.859375 -160.179688 80.859375 -186.929688 C 80.859375 -203.839844 71.636719 -213.0625 54.726562 -213.0625 L 49.191406 -213.0625 C 32.28125 -213.0625 23.058594 -203.839844 23.367188 -186.929688 C 23.367188 -160.179688 23.671875 -133.433594 23.671875 -106.683594 C 23.671875 -79.9375 23.367188 -53.1875 23.367188 -26.132812 C 23.058594 -9.222656 32.28125 0 49.191406 0 L 115.601562 0 C 132.511719 0 141.734375 -8.300781 141.734375 -23.671875 C 141.734375 -38.738281 132.203125 -46.425781 114.984375 -45.808594 C 103.609375 -45.195312 91.925781 -45.195312 80.550781 -44.886719 Z M 80.550781 -44.886719 "/></g></g></g><g fill="#df4d4d" fill-opacity="1"><g transform="translate(155.978884, 294.949538)"><g><path d="M 172.476562 -192.460938 C 172.476562 -205.988281 163.253906 -213.0625 146.34375 -213.0625 L 33.820312 -213.0625 C 16.910156 -213.0625 7.6875 -205.683594 7.6875 -192.460938 C 7.6875 -179.242188 16.910156 -171.554688 34.125 -171.554688 C 43.351562 -171.863281 52.265625 -171.863281 60.875 -171.863281 C 60.875 -150.34375 61.183594 -128.511719 61.183594 -106.683594 C 61.183594 -79.628906 60.875 -52.882812 60.566406 -26.132812 C 60.566406 -9.222656 69.789062 0 86.699219 0 L 92.234375 0 C 109.144531 0 118.367188 -9.222656 118.058594 -26.132812 C 118.058594 -53.1875 118.058594 -79.628906 118.058594 -106.683594 L 118.058594 -171.863281 C 127.285156 -171.863281 136.199219 -171.863281 146.039062 -171.554688 C 163.253906 -171.554688 172.476562 -179.242188 172.476562 -192.460938 Z M 172.476562 -192.460938 "/></g></g></g><path stroke-linecap="butt" transform="matrix(0.000000000000000213, 0.750556, -0.75, 0.000000000000000212, 93.71953, 95.07764)" fill="none" stroke-linejoin="miter" d="M 29.999235 4.001041 L 222.8198 4.001041 " stroke="#ffffff" stroke-width="8" stroke-opacity="1" stroke-miterlimit="4"/><path stroke-linecap="round" transform="matrix(0.000000000000000213, 0.750556, -0.75, 0.000000000000000212, 93.71953, 95.07764)" fill-opacity="1" fill="#ffffff" fill-rule="nonzero" stroke-linejoin="round" d="M 3.997682 4.001041 C 3.997682 -2.629168 9.373904 -7.99896 15.9992 -7.99896 C 22.6297 -7.99896 28.000717 -2.629168 28.000717 4.001041 C 28.000717 10.626041 22.6297 16.001042 15.9992 16.001042 C 9.373904 16.001042 3.997682 10.626041 3.997682 4.001041 " stroke="#ffffff" stroke-width="8" stroke-opacity="1" stroke-miterlimit="4"/><path stroke-linecap="round" transform="matrix(0.000000000000000213, 0.750556, -0.75, 0.000000000000000212, 93.71953, 95.07764)" fill-opacity="1" fill="#ffffff" fill-rule="nonzero" stroke-linejoin="round" d="M 248.821353 4.001041 C 248.821353 10.626041 243.450336 16.001042 236.819836 16.001042 C 230.19454 16.001042 224.823523 10.626041 224.823523 4.001041 C 224.823523 -2.629168 230.19454 -7.99896 236.819836 -7.99896 C 243.450336 -7.99896 248.821353 -2.629168 248.821353 4.001041 " stroke="#ffffff" stroke-width="8" stroke-opacity="1" stroke-miterlimit="4"/><path stroke-linecap="butt" transform="matrix(0.746955, 0, 0, 0.75, 77.530759, 268.498226)" fill="none" stroke-linejoin="miter" d="M 29.997432 4.002366 L 85.472639 4.002366 " stroke="#ffffff" stroke-width="8" stroke-opacity="1" stroke-miterlimit="4"/><path stroke-linecap="round" transform="matrix(0.746955, 0, 0, 0.75, 77.530759, 268.498226)" fill-opacity="1" fill="#ffffff" fill-rule="nonzero" stroke-linejoin="round" d="M 4.001274 4.002366 C 4.001274 -2.627843 9.372035 -7.997635 15.997892 -7.997635 C 22.628978 -7.997635 27.999739 -2.627843 27.999739 4.002366 C 27.999739 10.627367 22.628978 16.002367 15.997892 16.002367 C 9.372035 16.002367 4.001274 10.627367 4.001274 4.002366 " stroke="#ffffff" stroke-width="8" stroke-opacity="1" stroke-miterlimit="4"/><path stroke-linecap="round" transform="matrix(0.746955, 0, 0, 0.75, 77.530759, 268.498226)" fill-opacity="1" fill="#ffffff" fill-rule="nonzero" stroke-linejoin="round" d="M 111.474027 4.002366 C 111.474027 10.627367 106.098036 16.002367 99.472179 16.002367 C 92.846323 16.002367 87.470332 10.627367 87.470332 4.002366 C 87.470332 -2.627843 92.846323 -7.997635 99.472179 -7.997635 C 106.098036 -7.997635 111.474027 -2.627843 111.474027 4.002366 " stroke="#ffffff" stroke-width="8" stroke-opacity="1" stroke-miterlimit="4"/><path stroke-linecap="butt" transform="matrix(0.748765, 0, 0, 0.75, 178.560067, 98.394457)" fill="none" stroke-linejoin="miter" d="M 30.00056 4.0001 L 150.308036 4.0001 " stroke="#ffffff" stroke-width="8" stroke-opacity="1" stroke-miterlimit="4"/><path stroke-linecap="round" transform="matrix(0.748765, 0, 0, 0.75, 178.560067, 98.394457)" fill-opacity="1" fill="#ffffff" fill-rule="nonzero" stroke-linejoin="round" d="M 3.999413 4.0001 C 3.999413 -2.624901 9.372844 -7.999901 15.998337 -7.999901 C 22.629047 -7.999901 28.002478 -2.624901 28.002478 4.0001 C 28.002478 10.6251 22.629047 16.0001 15.998337 16.0001 C 9.372844 16.0001 3.999413 10.6251 3.999413 4.0001 " stroke="#ffffff" stroke-width="8" stroke-opacity="1" stroke-miterlimit="4"/><path stroke-linecap="round" transform="matrix(0.748765, 0, 0, 0.75, 178.560067, 98.394457)" fill-opacity="1" fill="#ffffff" fill-rule="nonzero" stroke-linejoin="round" d="M 176.303967 4.0001 C 176.303967 10.6251 170.930536 16.0001 164.305043 16.0001 C 157.67955 16.0001 152.306118 10.6251 152.306118 4.0001 C 152.306118 -2.624901 157.67955 -7.999901 164.305043 -7.999901 C 170.930536 -7.999901 176.303967 -2.624901 176.303967 4.0001 " stroke="#ffffff" stroke-width="8" stroke-opacity="1" stroke-miterlimit="4"/><path stroke-linecap="butt" transform="matrix(0.000000000000000046, 0.751521, -0.75, 0.000000000000000046, 249.174012, 98.210677)" fill="none" stroke-linejoin="miter" d="M 5.998597 3.997641 L 216.503924 3.997641 " stroke="#ffffff" stroke-width="8" stroke-opacity="1" stroke-miterlimit="4"/><path stroke-linecap="round" transform="matrix(0.000000000000000046, 0.751521, -0.75, 0.000000000000000046, 249.174012, 98.210677)" fill="none" stroke-linejoin="round" d="M 3.997448 -8.002359 L 3.997448 15.997642 " stroke="#ffffff" stroke-width="8" stroke-opacity="1" stroke-miterlimit="4"/><path stroke-linecap="round" transform="matrix(0.000000000000000046, 0.751521, -0.75, 0.000000000000000046, 249.174012, 98.210677)" fill-opacity="1" fill="#ffffff" fill-rule="nonzero" stroke-linejoin="round" d="M 242.503273 3.997641 C 242.503273 10.62785 237.128758 15.997642 230.501575 15.997642 C 223.874391 15.997642 218.499876 10.62785 218.499876 3.997641 C 218.499876 -2.627359 223.874391 -8.002359 230.501575 -8.002359 C 237.128758 -8.002359 242.503273 -2.627359 242.503273 3.997641 " stroke="#ffffff" stroke-width="8" stroke-opacity="1" stroke-miterlimit="4"/></svg>