<svg xmlns="http://www.w3.org/2000/svg" xmlns:xlink="http://www.w3.org/1999/xlink" width="500" zoomAndPan="magnify" viewBox="0 0 375 374.999991" height="500" preserveAspectRatio="xMidYMid meet" version="1.0"><defs><g/><clipPath id="c82496313c"><path d="M 18.75 154.121094 L 98.117188 154.121094 L 98.117188 220.878906 L 18.75 220.878906 Z M 18.75 154.121094 " clip-rule="nonzero"/></clipPath><clipPath id="c2e4021dfe"><path d="M 33 154.121094 L 83.867188 154.121094 C 87.648438 154.121094 91.273438 155.621094 93.945312 158.296875 C 96.617188 160.96875 98.117188 164.59375 98.117188 168.371094 L 98.117188 206.628906 C 98.117188 210.40625 96.617188 214.03125 93.945312 216.703125 C 91.273438 219.378906 87.648438 220.878906 83.867188 220.878906 L 33 220.878906 C 29.21875 220.878906 25.597656 219.378906 22.921875 216.703125 C 20.25 214.03125 18.75 210.40625 18.75 206.628906 L 18.75 168.371094 C 18.75 164.59375 20.25 160.96875 22.921875 158.296875 C 25.597656 155.621094 29.21875 154.121094 33 154.121094 " clip-rule="nonzero"/></clipPath></defs><rect x="-37.5" width="450" fill="#ffffff" y="-37.499999" height="449.999989" fill-opacity="1"/><rect x="-37.5" width="450" fill="#ffffff" y="-37.499999" height="449.999989" fill-opacity="1"/><rect x="-37.5" width="450" fill="#ffffff" y="-37.499999" height="449.999989" fill-opacity="1"/><g clip-path="url(#c82496313c)"><g clip-path="url(#c2e4021dfe)"><path fill="#ffffff" d="M 18.75 154.121094 L 98.117188 154.121094 L 98.117188 220.878906 L 18.75 220.878906 Z M 18.75 154.121094 " fill-opacity="1" fill-rule="nonzero"/></g></g><g fill="#df4d4d" fill-opacity="1"><g transform="translate(20.509323, 214.912924)"><g><path d="M 20.550781 -11.453125 L 20.550781 -27.21875 C 20.550781 -34.042969 20.628906 -40.867188 20.628906 -47.691406 C 20.628906 -52.003906 18.277344 -54.355469 13.960938 -54.355469 L 12.550781 -54.355469 C 8.234375 -54.355469 5.882812 -52.003906 5.960938 -47.691406 C 5.960938 -40.867188 6.039062 -34.042969 6.039062 -27.21875 C 6.039062 -20.394531 5.960938 -13.570312 5.960938 -6.667969 C 5.882812 -2.351562 8.234375 0 12.550781 0 L 29.492188 0 C 33.804688 0 36.160156 -2.117188 36.160156 -6.039062 C 36.160156 -9.882812 33.726562 -11.84375 29.335938 -11.6875 C 26.433594 -11.53125 23.453125 -11.53125 20.550781 -11.453125 Z M 20.550781 -11.453125 "/></g></g></g><g fill="#df4d4d" fill-opacity="1"><g transform="translate(50.392322, 214.912924)"><g><path d="M 44.003906 -49.101562 C 44.003906 -52.554688 41.648438 -54.355469 37.335938 -54.355469 L 8.628906 -54.355469 C 4.3125 -54.355469 1.960938 -52.472656 1.960938 -49.101562 C 1.960938 -45.730469 4.3125 -43.769531 8.707031 -43.769531 C 11.058594 -43.847656 13.335938 -43.847656 15.53125 -43.847656 C 15.53125 -38.355469 15.609375 -32.785156 15.609375 -27.21875 C 15.609375 -20.316406 15.53125 -13.492188 15.453125 -6.667969 C 15.453125 -2.351562 17.804688 0 22.121094 0 L 23.53125 0 C 27.84375 0 30.199219 -2.351562 30.121094 -6.667969 C 30.121094 -13.570312 30.121094 -20.316406 30.121094 -27.21875 L 30.121094 -43.847656 C 32.472656 -43.847656 34.746094 -43.847656 37.257812 -43.769531 C 41.648438 -43.769531 44.003906 -45.730469 44.003906 -49.101562 Z M 44.003906 -49.101562 "/></g></g></g><path stroke-linecap="butt" transform="matrix(0.000000000000000119, 0.420772, -0.420715, 0.000000000000000119, 34.585428, 163.91996)" fill="none" stroke-linejoin="miter" d="M 14.997456 2.004305 L 99.988203 2.004305 " stroke="#ffffff" stroke-width="4" stroke-opacity="1" stroke-miterlimit="4"/><path stroke-linecap="round" transform="matrix(0.000000000000000119, 0.420772, -0.420715, 0.000000000000000119, 34.585428, 163.91996)" fill-opacity="1" fill="#ffffff" fill-rule="nonzero" stroke-linejoin="round" d="M 2.00051 2.004305 C 2.00051 -1.310366 4.683451 -4.002957 7.997672 -4.002957 C 11.311894 -4.002957 14.004118 -1.310366 14.004118 2.004305 C 14.004118 5.309692 11.311894 8.002283 7.997672 8.002283 C 4.683451 8.002283 2.00051 5.309692 2.00051 2.004305 " stroke="#ffffff" stroke-width="4" stroke-opacity="1" stroke-miterlimit="4"/><path stroke-linecap="round" transform="matrix(0.000000000000000119, 0.420772, -0.420715, 0.000000000000000119, 34.585428, 163.91996)" fill-opacity="1" fill="#ffffff" fill-rule="nonzero" stroke-linejoin="round" d="M 112.98515 2.004305 C 112.98515 5.309692 110.302209 8.002283 106.987987 8.002283 C 103.673766 8.002283 100.981541 5.309692 100.981541 2.004305 C 100.981541 -1.310366 103.673766 -4.002957 106.987987 -4.002957 C 110.302209 -4.002957 112.98515 -1.310366 112.98515 2.004305 " stroke="#ffffff" stroke-width="4" stroke-opacity="1" stroke-miterlimit="4"/><path stroke-linecap="butt" transform="matrix(0.424595, 0, 0, 0.420715, 30.378344, 208.088497)" fill="none" stroke-linejoin="miter" d="M 14.997225 1.999433 L 37.518677 1.999433 " stroke="#ffffff" stroke-width="4" stroke-opacity="1" stroke-miterlimit="4"/><path stroke-linecap="round" transform="matrix(0.424595, 0, 0, 0.420715, 30.378344, 208.088497)" fill-opacity="1" fill="#ffffff" fill-rule="nonzero" stroke-linejoin="round" d="M 1.99771 1.999433 C 1.99771 -1.315239 4.684093 -3.998545 7.996071 -3.998545 C 11.317249 -3.998545 14.003632 -1.315239 14.003632 1.999433 C 14.003632 5.314104 11.317249 7.99741 7.996071 7.99741 C 4.684093 7.99741 1.99771 5.314104 1.99771 1.999433 " stroke="#ffffff" stroke-width="4" stroke-opacity="1" stroke-miterlimit="4"/><path stroke-linecap="round" transform="matrix(0.424595, 0, 0, 0.420715, 30.378344, 208.088497)" fill-opacity="1" fill="#ffffff" fill-rule="nonzero" stroke-linejoin="round" d="M 50.518192 1.999433 C 50.518192 5.314104 47.831809 7.99741 44.519831 7.99741 C 41.207853 7.99741 38.521471 5.314104 38.521471 1.999433 C 38.521471 -1.315239 41.207853 -3.998545 44.519831 -3.998545 C 47.831809 -3.998545 50.518192 -1.315239 50.518192 1.999433 " stroke="#ffffff" stroke-width="4" stroke-opacity="1" stroke-miterlimit="4"/><path stroke-linecap="butt" transform="matrix(0.420715, 0, 0, 0.420715, 56.153314, 164.690994)" fill="none" stroke-linejoin="miter" d="M 15.001921 1.997211 L 67.006056 1.997211 " stroke="#ffffff" stroke-width="4" stroke-opacity="1" stroke-miterlimit="4"/><path stroke-linecap="round" transform="matrix(0.420715, 0, 0, 0.420715, 56.153314, 164.690994)" fill-opacity="1" fill="#ffffff" fill-rule="nonzero" stroke-linejoin="round" d="M 2.003208 1.997211 C 2.003208 -1.317461 4.686514 -4.000767 8.001186 -4.000767 C 11.315858 -4.000767 13.999163 -1.317461 13.999163 1.997211 C 13.999163 5.311882 11.315858 8.004473 8.001186 8.004473 C 4.686514 8.004473 2.003208 5.311882 2.003208 1.997211 " stroke="#ffffff" stroke-width="4" stroke-opacity="1" stroke-miterlimit="4"/><path stroke-linecap="round" transform="matrix(0.420715, 0, 0, 0.420715, 56.153314, 164.690994)" fill-opacity="1" fill="#ffffff" fill-rule="nonzero" stroke-linejoin="round" d="M 80.004769 1.997211 C 80.004769 5.311882 77.321463 8.004473 74.006792 8.004473 C 70.69212 8.004473 67.999529 5.311882 67.999529 1.997211 C 67.999529 -1.317461 70.69212 -4.000767 74.006792 -4.000767 C 77.321463 -4.000767 80.004769 -1.317461 80.004769 1.997211 " stroke="#ffffff" stroke-width="4" stroke-opacity="1" stroke-miterlimit="4"/><path stroke-linecap="butt" transform="matrix(0.000000000000000026, 0.420304, -0.420715, 0.000000000000000026, 74.244705, 164.72013)" fill="none" stroke-linejoin="miter" d="M 2.998634 2.002215 L 97.108284 2.002215 " stroke="#ffffff" stroke-width="4" stroke-opacity="1" stroke-miterlimit="4"/><path stroke-linecap="round" transform="matrix(0.000000000000000026, 0.420304, -0.420715, 0.000000000000000026, 74.244705, 164.72013)" fill="none" stroke-linejoin="round" d="M 2.004191 -3.995762 L 2.004191 8.000193 " stroke="#ffffff" stroke-width="4" stroke-opacity="1" stroke-miterlimit="4"/><path stroke-linecap="round" transform="matrix(0.000000000000000026, 0.420304, -0.420715, 0.000000000000000026, 74.244705, 164.72013)" fill-opacity="1" fill="#ffffff" fill-rule="nonzero" stroke-linejoin="round" d="M 110.110397 2.002215 C 110.110397 5.316887 107.424471 8.000193 104.106562 8.000193 C 100.797947 8.000193 98.112021 5.316887 98.112021 2.002215 C 98.112021 -1.312456 100.797947 -3.995762 104.106562 -3.995762 C 107.424471 -3.995762 110.110397 -1.312456 110.110397 2.002215 " stroke="#ffffff" stroke-width="4" stroke-opacity="1" stroke-miterlimit="4"/><g fill="#ffffff" fill-opacity="1"><g transform="translate(101.529631, 195.772266)"><g><path d="M 7.90625 -4.40625 L 7.90625 -10.472656 C 7.90625 -13.097656 7.9375 -15.726562 7.9375 -18.351562 C 7.9375 -20.011719 7.03125 -20.917969 5.371094 -20.917969 L 4.828125 -20.917969 C 3.167969 -20.917969 2.261719 -20.011719 2.292969 -18.351562 C 2.292969 -15.726562 2.324219 -13.097656 2.324219 -10.472656 C 2.324219 -7.847656 2.292969 -5.222656 2.292969 -2.566406 C 2.261719 -0.90625 3.167969 0 4.828125 0 L 11.347656 0 C 13.007812 0 13.914062 -0.816406 13.914062 -2.324219 C 13.914062 -3.804688 12.976562 -4.558594 11.289062 -4.496094 C 10.171875 -4.4375 9.023438 -4.4375 7.90625 -4.40625 Z M 7.90625 -4.40625 "/></g></g></g><g fill="#ffffff" fill-opacity="1"><g transform="translate(116.374095, 195.772266)"><g><path d="M 4.285156 -18.804688 C 6.519531 -18.804688 7.425781 -19.558594 7.425781 -21.367188 C 7.425781 -23.179688 6.519531 -23.933594 4.285156 -23.933594 C 2.050781 -23.933594 1.148438 -23.179688 1.148438 -21.367188 C 1.148438 -19.558594 2.050781 -18.804688 4.285156 -18.804688 Z M 4.375 0 C 6.035156 0 6.910156 -0.90625 6.882812 -2.566406 C 6.882812 -4.285156 6.851562 -5.976562 6.882812 -7.726562 C 6.910156 -9.566406 6.910156 -12.011719 6.910156 -14.125 C 6.910156 -15.785156 6.007812 -16.691406 4.347656 -16.691406 L 4.316406 -16.691406 C 2.65625 -16.691406 1.75 -15.785156 1.75 -14.15625 C 1.78125 -12.253906 1.78125 -9.597656 1.8125 -5.132812 L 1.8125 -2.566406 C 1.8125 -0.90625 2.714844 0 4.375 0 Z M 4.375 0 "/></g></g></g><g fill="#ffffff" fill-opacity="1"><g transform="translate(124.942844, 195.772266)"><g><path d="M 16.78125 -2.59375 C 16.75 -5.3125 16.691406 -7.847656 16.75 -9.960938 C 16.871094 -14.941406 15.273438 -16.960938 12.101562 -16.960938 C 9.777344 -16.960938 8 -15.964844 6.851562 -13.855469 L 6.761719 -13.855469 C 6.761719 -14.457031 6.761719 -14.910156 6.761719 -15.300781 C 6.789062 -16.207031 5.886719 -16.722656 4.285156 -16.722656 C 2.65625 -16.722656 1.75 -15.816406 1.75 -14.15625 C 1.78125 -12.222656 1.8125 -10.320312 1.8125 -8.332031 C 1.8125 -6.367188 1.78125 -4.496094 1.75 -2.566406 C 1.75 -0.90625 2.65625 0 4.316406 0 L 4.496094 0 C 6.15625 0 7.0625 -0.90625 7.0625 -2.566406 C 7.03125 -4.496094 7.003906 -6.367188 7.03125 -8.332031 C 7.03125 -9.175781 7.0625 -10.050781 7.0625 -10.867188 C 7.546875 -11.953125 8.421875 -12.585938 9.566406 -12.617188 C 10.925781 -12.644531 11.621094 -11.980469 11.621094 -10.019531 C 11.621094 -7.9375 11.589844 -5.371094 11.558594 -2.59375 C 11.558594 -0.90625 12.464844 0 14.125 0 L 14.214844 0 C 15.875 0 16.78125 -0.90625 16.78125 -2.59375 Z M 16.78125 -2.59375 "/></g></g></g><g fill="#ffffff" fill-opacity="1"><g transform="translate(143.468238, 195.772266)"><g><path d="M 16.359375 -2.835938 C 14.878906 -7.695312 13.855469 -8.933594 11.199219 -9.234375 L 11.199219 -9.355469 C 12.765625 -9.988281 14.367188 -11.648438 15.484375 -13.703125 C 16.390625 -15.421875 15.332031 -16.691406 13.429688 -16.691406 L 12.828125 -16.691406 C 11.289062 -16.691406 10.503906 -15.90625 10.019531 -14.425781 C 9.417969 -12.554688 8.300781 -10.894531 6.851562 -10.082031 L 6.851562 -11.257812 C 6.882812 -13.914062 6.882812 -16.628906 6.882812 -19.285156 C 6.882812 -20.945312 5.976562 -21.851562 4.316406 -21.851562 L 4.136719 -21.851562 C 2.476562 -21.851562 1.570312 -20.945312 1.570312 -19.285156 C 1.601562 -16.628906 1.660156 -13.914062 1.660156 -11.257812 C 1.660156 -8.269531 1.601562 -5.492188 1.570312 -2.566406 C 1.570312 -0.90625 2.476562 0 4.136719 0 L 4.316406 0 C 5.976562 0 6.882812 -0.90625 6.882812 -2.566406 C 6.851562 -4.015625 6.851562 -5.402344 6.851562 -6.820312 L 7.304688 -6.820312 C 8.8125 -6.820312 9.476562 -5.886719 10.441406 -2.355469 C 10.867188 -0.753906 11.832031 0 13.339844 0 L 14.183594 0 C 16.027344 0 16.902344 -1.117188 16.359375 -2.835938 Z M 16.359375 -2.835938 "/></g></g></g><g fill="#ffffff" fill-opacity="1"><g transform="translate(161.541062, 195.772266)"><g><path d="M 16.933594 -18.894531 C 16.933594 -20.222656 16.027344 -20.917969 14.367188 -20.917969 L 3.320312 -20.917969 C 1.660156 -20.917969 0.753906 -20.191406 0.753906 -18.894531 C 0.753906 -17.597656 1.660156 -16.839844 3.351562 -16.839844 C 4.253906 -16.871094 5.132812 -16.871094 5.976562 -16.871094 C 5.976562 -14.757812 6.007812 -12.617188 6.007812 -10.472656 C 6.007812 -7.816406 5.976562 -5.191406 5.945312 -2.566406 C 5.945312 -0.90625 6.851562 0 8.511719 0 L 9.054688 0 C 10.714844 0 11.621094 -0.90625 11.589844 -2.566406 C 11.589844 -5.222656 11.589844 -7.816406 11.589844 -10.472656 L 11.589844 -16.871094 C 12.496094 -16.871094 13.371094 -16.871094 14.335938 -16.839844 C 16.027344 -16.839844 16.933594 -17.597656 16.933594 -18.894531 Z M 16.933594 -18.894531 "/></g></g></g><g fill="#ffffff" fill-opacity="1"><g transform="translate(179.221652, 195.772266)"><g><path d="M 11.347656 -16.933594 C 11.167969 -16.960938 10.925781 -16.992188 10.59375 -16.992188 C 8.601562 -16.992188 7.214844 -15.242188 6.730469 -12.765625 L 6.640625 -12.828125 L 6.640625 -14.789062 C 6.640625 -16.058594 5.765625 -16.722656 4.195312 -16.722656 C 2.625 -16.722656 1.75 -15.816406 1.75 -14.15625 C 1.78125 -12.222656 1.8125 -10.351562 1.8125 -8.359375 C 1.8125 -6.367188 1.78125 -4.496094 1.75 -2.566406 C 1.75 -0.90625 2.65625 0 4.316406 0 L 4.40625 0 C 6.097656 0 6.972656 -0.9375 6.910156 -2.625 C 6.882812 -3.894531 6.851562 -5.132812 6.851562 -6.367188 C 6.851562 -7.003906 6.882812 -7.695312 6.882812 -8.359375 L 6.882812 -9.085938 C 7.425781 -10.714844 8.359375 -11.589844 9.6875 -11.589844 C 10.140625 -11.589844 10.503906 -11.53125 10.894531 -11.410156 C 11.648438 -11.136719 12.585938 -11.558594 12.976562 -13.128906 C 13.160156 -13.824219 13.191406 -14.546875 12.976562 -15.242188 C 12.585938 -16.417969 11.890625 -16.8125 11.347656 -16.933594 Z M 11.347656 -16.933594 "/></g></g></g><g fill="#ffffff" fill-opacity="1"><g transform="translate(192.376507, 195.772266)"><g><path d="M 6.308594 0.300781 C 8 0.300781 9.628906 -0.273438 10.835938 -1.449219 C 10.867188 -1.207031 10.894531 -0.964844 10.984375 -0.722656 C 11.105469 -0.242188 11.921875 0 13.460938 0 L 13.734375 0 C 15.363281 0 16.207031 -0.9375 16.117188 -2.625 C 16.027344 -4.679688 16.027344 -7.304688 16.027344 -10.925781 C 16.027344 -14.96875 13.792969 -16.960938 9.296875 -16.960938 C 4.890625 -16.960938 2.566406 -15.785156 1.871094 -13.429688 C 1.386719 -11.769531 2.625 -10.804688 4.316406 -10.804688 L 4.617188 -10.804688 C 6.097656 -10.804688 6.21875 -11.621094 7.09375 -12.949219 C 7.453125 -13.492188 8.117188 -13.703125 8.902344 -13.703125 C 10.230469 -13.703125 10.835938 -13.039062 10.835938 -10.835938 L 10.835938 -9.808594 C 4.042969 -9.988281 0.9375 -8.027344 0.9375 -4.253906 C 0.9375 -1.085938 3.320312 0.300781 6.308594 0.300781 Z M 7.90625 -3.109375 C 6.488281 -3.109375 5.734375 -3.921875 5.734375 -5.070312 C 5.734375 -7.003906 8.148438 -7.335938 10.894531 -7.394531 L 10.894531 -4.679688 C 10.203125 -3.683594 9.265625 -3.109375 7.90625 -3.109375 Z M 7.90625 -3.109375 "/></g></g></g><g fill="#ffffff" fill-opacity="1"><g transform="translate(209.936426, 195.772266)"><g><path d="M 16.78125 -2.59375 C 16.75 -5.3125 16.691406 -7.847656 16.75 -9.960938 C 16.871094 -14.941406 15.273438 -16.960938 12.101562 -16.960938 C 9.777344 -16.960938 8 -15.964844 6.851562 -13.855469 L 6.761719 -13.855469 C 6.761719 -14.457031 6.761719 -14.910156 6.761719 -15.300781 C 6.789062 -16.207031 5.886719 -16.722656 4.285156 -16.722656 C 2.65625 -16.722656 1.75 -15.816406 1.75 -14.15625 C 1.78125 -12.222656 1.8125 -10.320312 1.8125 -8.332031 C 1.8125 -6.367188 1.78125 -4.496094 1.75 -2.566406 C 1.75 -0.90625 2.65625 0 4.316406 0 L 4.496094 0 C 6.15625 0 7.0625 -0.90625 7.0625 -2.566406 C 7.03125 -4.496094 7.003906 -6.367188 7.03125 -8.332031 C 7.03125 -9.175781 7.0625 -10.050781 7.0625 -10.867188 C 7.546875 -11.953125 8.421875 -12.585938 9.566406 -12.617188 C 10.925781 -12.644531 11.621094 -11.980469 11.621094 -10.019531 C 11.621094 -7.9375 11.589844 -5.371094 11.558594 -2.59375 C 11.558594 -0.90625 12.464844 0 14.125 0 L 14.214844 0 C 15.875 0 16.78125 -0.90625 16.78125 -2.59375 Z M 16.78125 -2.59375 "/></g></g></g><g fill="#ffffff" fill-opacity="1"><g transform="translate(228.46182, 195.772266)"><g><path d="M 8.027344 0.363281 C 12.859375 0.363281 15.394531 -1.507812 15.394531 -5.222656 C 15.394531 -11.890625 6.277344 -8.332031 6.277344 -12.011719 C 6.277344 -12.949219 6.761719 -13.492188 8.390625 -13.492188 C 9.265625 -13.492188 9.839844 -13.339844 10.171875 -13.007812 C 11.078125 -11.980469 11.226562 -11.226562 12.644531 -11.226562 L 12.765625 -11.226562 C 14.183594 -11.226562 15.273438 -12.164062 14.789062 -13.792969 C 14.125 -15.90625 12.011719 -16.960938 8.390625 -16.960938 C 3.652344 -16.960938 1.296875 -15.273438 1.296875 -11.832031 C 1.296875 -4.738281 10.382812 -8.449219 10.382812 -4.558594 C 10.382812 -3.652344 9.71875 -2.988281 7.816406 -2.988281 C 6.820312 -2.988281 6.246094 -3.140625 5.945312 -3.53125 C 5.070312 -4.679688 4.949219 -5.464844 3.5 -5.464844 L 3.410156 -5.464844 C 1.992188 -5.464844 0.875 -4.496094 1.417969 -2.835938 C 2.082031 -0.722656 4.136719 0.363281 8.027344 0.363281 Z M 8.027344 0.363281 "/></g></g></g><g fill="#ffffff" fill-opacity="1"><g transform="translate(244.995892, 195.772266)"><g><path d="M 13.761719 -19.285156 C 13.882812 -20.644531 13.308594 -21.761719 11.800781 -22.003906 C 11.347656 -22.09375 10.867188 -22.125 10.351562 -22.125 C 6.21875 -22.125 3.5625 -20.464844 3.652344 -15.90625 C 3.652344 -15.394531 3.652344 -14.820312 3.683594 -14.246094 L 2.292969 -14.246094 C 1.386719 -14.246094 0.875 -13.550781 0.875 -12.3125 C 0.875 -11.046875 1.78125 -10.351562 3.441406 -10.351562 L 3.683594 -10.351562 L 3.683594 -8.933594 C 3.683594 -6.820312 3.710938 -4.679688 3.710938 -2.566406 C 3.710938 -0.90625 4.585938 0 6.15625 0 C 7.726562 0 8.570312 -0.90625 8.570312 -2.566406 C 8.570312 -4.679688 8.542969 -6.820312 8.542969 -8.933594 C 8.542969 -9.417969 8.511719 -9.898438 8.511719 -10.382812 L 10.894531 -10.414062 C 12.433594 -10.414062 13.28125 -11.105469 13.28125 -12.34375 C 13.28125 -13.582031 12.375 -14.246094 10.714844 -14.246094 L 8.511719 -14.246094 L 8.511719 -15.574219 C 8.511719 -17.386719 9.539062 -18.167969 10.984375 -18.109375 C 12.738281 -17.988281 13.640625 -17.988281 13.761719 -19.285156 Z M 13.761719 -19.285156 "/></g></g></g><g fill="#ffffff" fill-opacity="1"><g transform="translate(259.327415, 195.772266)"><g><path d="M 8.84375 0.363281 C 13.972656 0.363281 16.480469 -2.503906 16.480469 -8.300781 C 16.480469 -14.066406 13.972656 -16.960938 8.84375 -16.960938 C 3.652344 -16.960938 1.085938 -14.066406 1.085938 -8.300781 C 1.085938 -2.503906 3.652344 0.363281 8.84375 0.363281 Z M 8.84375 -3.320312 C 7.304688 -3.320312 6.246094 -4.285156 6.246094 -8.300781 C 6.246094 -11.980469 6.941406 -13.28125 8.84375 -13.28125 C 10.59375 -13.28125 11.316406 -11.980469 11.316406 -8.300781 C 11.316406 -4.285156 10.261719 -3.320312 8.84375 -3.320312 Z M 8.84375 -3.320312 "/></g></g></g><g fill="#ffffff" fill-opacity="1"><g transform="translate(276.887333, 195.772266)"><g><path d="M 11.347656 -16.933594 C 11.167969 -16.960938 10.925781 -16.992188 10.59375 -16.992188 C 8.601562 -16.992188 7.214844 -15.242188 6.730469 -12.765625 L 6.640625 -12.828125 L 6.640625 -14.789062 C 6.640625 -16.058594 5.765625 -16.722656 4.195312 -16.722656 C 2.625 -16.722656 1.75 -15.816406 1.75 -14.15625 C 1.78125 -12.222656 1.8125 -10.351562 1.8125 -8.359375 C 1.8125 -6.367188 1.78125 -4.496094 1.75 -2.566406 C 1.75 -0.90625 2.65625 0 4.316406 0 L 4.40625 0 C 6.097656 0 6.972656 -0.9375 6.910156 -2.625 C 6.882812 -3.894531 6.851562 -5.132812 6.851562 -6.367188 C 6.851562 -7.003906 6.882812 -7.695312 6.882812 -8.359375 L 6.882812 -9.085938 C 7.425781 -10.714844 8.359375 -11.589844 9.6875 -11.589844 C 10.140625 -11.589844 10.503906 -11.53125 10.894531 -11.410156 C 11.648438 -11.136719 12.585938 -11.558594 12.976562 -13.128906 C 13.160156 -13.824219 13.191406 -14.546875 12.976562 -15.242188 C 12.585938 -16.417969 11.890625 -16.8125 11.347656 -16.933594 Z M 11.347656 -16.933594 "/></g></g></g><g fill="#ffffff" fill-opacity="1"><g transform="translate(290.042189, 195.772266)"><g><path d="M 26.226562 -2.59375 C 26.199219 -5.3125 26.136719 -7.847656 26.199219 -9.960938 C 26.320312 -14.941406 24.71875 -16.960938 21.550781 -16.960938 C 19.226562 -16.960938 17.445312 -15.964844 16.296875 -13.855469 L 16.207031 -13.855469 C 15.542969 -16.027344 14.125 -16.960938 11.953125 -16.960938 C 9.628906 -16.960938 7.847656 -15.964844 6.699219 -13.855469 L 6.671875 -13.855469 C 6.699219 -14.425781 6.699219 -14.910156 6.730469 -15.300781 C 6.730469 -16.207031 5.796875 -16.722656 4.136719 -16.722656 C 2.476562 -16.722656 1.570312 -15.816406 1.601562 -14.15625 C 1.628906 -12.222656 1.660156 -10.351562 1.660156 -8.359375 C 1.660156 -6.367188 1.628906 -4.496094 1.601562 -2.566406 C 1.570312 -0.90625 2.476562 0 4.136719 0 L 4.347656 0 C 6.007812 0 6.910156 -0.90625 6.882812 -2.566406 C 6.882812 -4.496094 6.851562 -6.367188 6.882812 -8.359375 L 6.882812 -10.867188 C 7.394531 -11.953125 8.269531 -12.585938 9.417969 -12.617188 C 10.773438 -12.644531 11.46875 -11.980469 11.46875 -10.019531 C 11.46875 -7.9375 11.4375 -5.371094 11.410156 -2.59375 C 11.410156 -0.90625 12.3125 0 13.972656 0 L 14.066406 0 C 15.726562 0 16.628906 -0.90625 16.628906 -2.59375 C 16.601562 -5.3125 16.539062 -7.847656 16.601562 -9.960938 L 16.601562 -11.078125 C 17.113281 -12.042969 17.929688 -12.585938 19.015625 -12.617188 C 20.371094 -12.644531 21.066406 -11.980469 21.066406 -10.019531 C 21.066406 -7.9375 21.035156 -5.371094 21.007812 -2.59375 C 21.007812 -0.90625 21.910156 0 23.570312 0 L 23.664062 0 C 25.324219 0 26.226562 -0.90625 26.226562 -2.59375 Z M 26.226562 -2.59375 "/></g></g></g><g fill="#ffffff" fill-opacity="1"><g transform="translate(318.011322, 195.772266)"><g><path d="M 8.875 0.300781 C 12.585938 0.300781 14.847656 -0.753906 15.574219 -2.988281 C 16.027344 -4.347656 14.910156 -5.191406 13.339844 -5.191406 C 12.042969 -5.191406 11.921875 -4.347656 10.773438 -3.589844 C 10.351562 -3.351562 9.71875 -3.199219 8.902344 -3.199219 C 7.335938 -3.199219 6.1875 -3.953125 6.066406 -7.0625 L 15.695312 -7.0625 C 15.9375 -7.0625 16.117188 -7.242188 16.148438 -7.546875 C 16.722656 -13.160156 14.488281 -16.960938 8.875 -16.960938 C 3.652344 -16.960938 1.085938 -14.15625 1.085938 -8.601562 C 1.085938 -2.65625 3.472656 0.300781 8.875 0.300781 Z M 6.097656 -9.898438 C 6.035156 -12.34375 7.0625 -13.523438 8.632812 -13.523438 C 10.382812 -13.523438 11.105469 -12.3125 11.046875 -9.898438 Z M 6.097656 -9.898438 "/></g></g></g><g fill="#ffffff" fill-opacity="1"><g transform="translate(335.450534, 195.772266)"><g><path d="M 11.347656 -16.933594 C 11.167969 -16.960938 10.925781 -16.992188 10.59375 -16.992188 C 8.601562 -16.992188 7.214844 -15.242188 6.730469 -12.765625 L 6.640625 -12.828125 L 6.640625 -14.789062 C 6.640625 -16.058594 5.765625 -16.722656 4.195312 -16.722656 C 2.625 -16.722656 1.75 -15.816406 1.75 -14.15625 C 1.78125 -12.222656 1.8125 -10.351562 1.8125 -8.359375 C 1.8125 -6.367188 1.78125 -4.496094 1.75 -2.566406 C 1.75 -0.90625 2.65625 0 4.316406 0 L 4.40625 0 C 6.097656 0 6.972656 -0.9375 6.910156 -2.625 C 6.882812 -3.894531 6.851562 -5.132812 6.851562 -6.367188 C 6.851562 -7.003906 6.882812 -7.695312 6.882812 -8.359375 L 6.882812 -9.085938 C 7.425781 -10.714844 8.359375 -11.589844 9.6875 -11.589844 C 10.140625 -11.589844 10.503906 -11.53125 10.894531 -11.410156 C 11.648438 -11.136719 12.585938 -11.558594 12.976562 -13.128906 C 13.160156 -13.824219 13.191406 -14.546875 12.976562 -15.242188 C 12.585938 -16.417969 11.890625 -16.8125 11.347656 -16.933594 Z M 11.347656 -16.933594 "/></g></g></g><g fill="#ffffff" fill-opacity="1"><g transform="translate(348.589702, 195.772266)"><g/></g></g></svg>